<svg width="9" height="14" viewBox="0 0 9 14" fill="none" xmlns="http://www.w3.org/2000/svg">
<path d="M7.83424 6.17576L2.00154 0.343069C1.89278 0.234303 1.76365 0.148025 1.62154 0.0891611C1.47943 0.0302972 1.32712 0 1.1733 0C0.862651 0 0.564724 0.123406 0.34506 0.343069C0.236294 0.451836 0.150015 0.58096 0.0911514 0.72307C0.0322875 0.86518 0.00199137 1.01749 0.00199137 1.17131C0.00199137 1.48196 0.125397 1.77989 0.34506 1.99955L5.36118 7.004L0.34506 12.0085C0.235722 12.1169 0.148939 12.2459 0.0897152 12.3881C0.0304915 12.5302 0 12.6827 0 12.8367C0 12.9907 0.0304915 13.1432 0.0897152 13.2853C0.148939 13.4275 0.235722 13.5565 0.34506 13.6649C0.453505 13.7743 0.582525 13.8611 0.724679 13.9203C0.866832 13.9795 1.01931 14.01 1.1733 14.01C1.3273 14.01 1.47977 13.9795 1.62193 13.9203C1.76408 13.8611 1.8931 13.7743 2.00154 13.6649L7.83424 7.83225C7.94357 7.7238 8.03036 7.59478 8.08958 7.45263C8.14881 7.31047 8.1793 7.158 8.1793 7.004C8.1793 6.85001 8.14881 6.69753 8.08958 6.55538C8.03036 6.41323 7.94357 6.28421 7.83424 6.17576Z" fill="white" fill-opacity="0.7"/>
</svg>
