<svg width="9" height="14" viewBox="0 0 9 14" fill="none" xmlns="http://www.w3.org/2000/svg">
<path d="M7.83312 0.345011C7.72469 0.235689 7.59569 0.148918 7.45356 0.0897024C7.31143 0.0304872 7.15897 0 7.005 0C6.85102 0 6.69857 0.0304872 6.55644 0.0897024C6.41431 0.148918 6.2853 0.235689 6.17688 0.345011L0.345011 6.17688C0.235689 6.28531 0.148917 6.41431 0.0897021 6.55644C0.0304869 6.69857 0 6.85103 0 7.005C0 7.15898 0.0304869 7.31143 0.0897021 7.45356C0.148917 7.59569 0.235689 7.7247 0.345011 7.83313L6.17688 13.665C6.2853 13.7743 6.41431 13.8611 6.55644 13.9203C6.69857 13.9795 6.85102 14.01 7.005 14.01C7.15897 14.01 7.31143 13.9795 7.45356 13.9203C7.59569 13.8611 7.72469 13.7743 7.83312 13.665C7.94245 13.5566 8.02922 13.4276 8.08843 13.2854C8.14765 13.1433 8.17814 12.9908 8.17814 12.8369C8.17814 12.6829 8.14765 12.5304 8.08843 12.3883C8.02922 12.2462 7.94245 12.1172 7.83312 12.0087L2.81772 7.005L7.83312 2.00126C7.94245 1.89283 8.02922 1.76383 8.08843 1.6217C8.14765 1.47956 8.17814 1.32711 8.17814 1.17314C8.17814 1.01916 8.14765 0.866709 8.08843 0.724576C8.02922 0.582443 7.94245 0.453441 7.83312 0.345011Z" fill="white" fill-opacity="0.7"/>
</svg>